<svg width="27" height="27" viewBox="0 0 27 27" fill="none" xmlns="http://www.w3.org/2000/svg">
<g clip-path="url(#clip0_51_51)">
<path d="M21.375 2.25H20.25V1.125C20.25 0.504 19.7471 0 19.125 0C18.5029 0 18 0.504 18 1.125V2.25H9V1.125C9 0.504 8.49712 0 7.875 0C7.25287 0 6.75 0.504 6.75 1.125V2.25H5.625C2.52338 2.25 0 4.77338 0 7.875V21.375C0 24.4766 2.52338 27 5.625 27H21.375C24.4766 27 27 24.4766 27 21.375V7.875C27 4.77338 24.4766 2.25 21.375 2.25ZM5.625 4.5H21.375C23.2358 4.5 24.75 6.01425 24.75 7.875V9H2.25V7.875C2.25 6.01425 3.76425 4.5 5.625 4.5ZM21.375 24.75H5.625C3.76425 24.75 2.25 23.2358 2.25 21.375V11.25H24.75V21.375C24.75 23.2358 23.2358 24.75 21.375 24.75ZM21.375 15.75C21.375 16.371 20.8721 16.875 20.25 16.875H6.75C6.12787 16.875 5.625 16.371 5.625 15.75C5.625 15.129 6.12787 14.625 6.75 14.625H20.25C20.8721 14.625 21.375 15.129 21.375 15.75ZM13.5 20.25C13.5 20.871 12.9971 21.375 12.375 21.375H6.75C6.12787 21.375 5.625 20.871 5.625 20.25C5.625 19.629 6.12787 19.125 6.75 19.125H12.375C12.9971 19.125 13.5 19.629 13.5 20.25Z" fill="#525C3A"/>
</g>
<defs>
<clipPath id="clip0_51_51">
<rect width="27" height="27" fill="white"/>
</clipPath>
</defs>
</svg>
