<svg width="29" height="29" viewBox="0 0 29 29" fill="none" xmlns="http://www.w3.org/2000/svg">
<g clip-path="url(#clip0_51_53)">
<path d="M14.5 29C6.50446 29 0 22.4955 0 14.5C0 6.50446 6.50446 0 14.5 0C22.4955 0 29 6.50446 29 14.5C29 22.4955 22.4955 29 14.5 29ZM14.5 2.41667C7.83725 2.41667 2.41667 7.83725 2.41667 14.5C2.41667 21.1628 7.83725 26.5833 14.5 26.5833C21.1628 26.5833 26.5833 21.1628 26.5833 14.5C26.5833 7.83725 21.1628 2.41667 14.5 2.41667ZM20.5417 14.5C20.5417 13.8318 20.0015 13.2917 19.3333 13.2917H15.7083V7.25C15.7083 6.58179 15.167 6.04167 14.5 6.04167C13.833 6.04167 13.2917 6.58179 13.2917 7.25V14.5C13.2917 15.1682 13.833 15.7083 14.5 15.7083H19.3333C20.0015 15.7083 20.5417 15.1682 20.5417 14.5Z" fill="#525C3A"/>
</g>
<defs>
<clipPath id="clip0_51_53">
<rect width="29" height="29" fill="white"/>
</clipPath>
</defs>
</svg>
