<svg width="208" height="106" viewBox="0 0 208 106" fill="none" xmlns="http://www.w3.org/2000/svg">
<path d="M77.8471 4.73926H84.934V63.353H77.8471V4.73926ZM110.303 64.1103C107.356 64.1103 104.664 63.4793 102.225 62.2171C99.8379 60.9549 97.9328 59.1122 96.51 56.6889C95.1383 54.2151 94.4525 51.2113 94.4525 47.6772C94.4525 44.1937 95.1895 41.1898 96.6624 38.6656C98.1353 36.0908 100.092 34.1219 102.53 32.7588C105.02 31.3956 107.737 30.7141 110.684 30.7141C113.631 30.7141 116.119 31.3956 118.152 32.7588C120.184 34.0713 121.733 35.6364 122.8 37.4539L122.343 38.6656L123.029 32.0015H129.582V63.353H122.496V55.1743L123.258 56.9918C123.054 57.4967 122.597 58.153 121.886 58.9608C121.225 59.7181 120.311 60.5005 119.143 61.3083C118.025 62.1161 116.729 62.7977 115.256 63.353C113.783 63.8579 112.132 64.1103 110.303 64.1103ZM112.208 58.2792C113.986 58.2792 115.586 57.9511 117.009 57.2947C118.432 56.6384 119.6 55.7297 120.514 54.5685C121.48 53.3569 122.14 51.918 122.496 50.252V44.118C122.089 42.6034 121.378 41.2908 120.362 40.1801C119.346 39.019 118.127 38.1355 116.704 37.5296C115.281 36.8733 113.707 36.5452 111.979 36.5452C110.099 36.5452 108.373 36.9995 106.798 37.9083C105.222 38.817 103.953 40.0792 102.987 41.6947C102.073 43.3102 101.616 45.2034 101.616 47.3743C101.616 49.3938 102.098 51.2365 103.064 52.9025C104.029 54.5685 105.325 55.8811 106.95 56.8404C108.575 57.7996 110.328 58.2792 112.208 58.2792ZM167.451 60.4753C166.028 61.586 164.326 62.4695 162.345 63.1258C160.364 63.7822 158.383 64.1103 156.401 64.1103C152.947 64.1103 149.924 63.4287 147.333 62.0656C144.742 60.7025 142.71 58.8093 141.237 56.386C139.814 53.9122 139.103 51.0093 139.103 47.6772C139.103 44.3452 139.865 41.4423 141.389 38.9685C142.964 36.4947 144.996 34.6014 147.485 33.2889C150.025 31.9257 152.743 31.2442 155.639 31.2442C158.179 31.2442 160.44 31.5976 162.421 32.3044C164.454 33.0111 166.18 33.9704 167.603 35.1821L164.098 39.7258C163.183 39.019 162.065 38.3879 160.745 37.8326C159.424 37.2772 157.925 36.9995 156.249 36.9995C154.42 36.9995 152.718 37.4791 151.143 38.4384C149.619 39.3471 148.4 40.6093 147.485 42.2248C146.622 43.8403 146.19 45.6578 146.19 47.6772C146.19 49.5957 146.647 51.3879 147.562 53.054C148.476 54.6695 149.746 55.9568 151.372 56.9161C152.997 57.8248 154.852 58.2792 156.935 58.2792C158.306 58.2792 159.551 58.0772 160.669 57.6734C161.837 57.2695 162.879 56.7141 163.793 56.0074L167.451 60.4753ZM191.23 64.1103C187.624 64.1103 184.524 63.4035 181.934 61.9899C179.343 60.5259 177.336 58.5569 175.913 56.0831C174.542 53.5588 173.856 50.6812 173.856 47.4501C173.856 44.3704 174.644 41.5685 176.218 39.0442C177.793 36.52 179.902 34.5005 182.543 32.9859C185.185 31.4714 188.132 30.7141 191.383 30.7141C195.549 30.7141 199.003 31.9257 201.746 34.349C204.49 36.7724 206.345 40.1044 207.309 44.3452L181.324 53.4326L179.647 49.2675L200.984 41.5432L199.46 42.5277C198.851 40.8617 197.835 39.4229 196.412 38.2112C194.99 36.949 193.135 36.318 190.849 36.318C188.919 36.318 187.192 36.7976 185.667 37.7568C184.143 38.6656 182.95 39.9277 182.086 41.5432C181.223 43.1587 180.79 45.0015 180.79 47.0714C180.79 49.2423 181.248 51.1607 182.162 52.8268C183.077 54.4423 184.322 55.7297 185.896 56.6889C187.522 57.5977 189.351 58.052 191.383 58.052C192.754 58.052 194.076 57.7996 195.345 57.2947C196.667 56.7899 197.886 56.1336 199.003 55.3258L202.28 60.5511C200.706 61.6113 198.927 62.4695 196.946 63.1258C195.015 63.7822 193.11 64.1103 191.23 64.1103Z" fill="#525C3A"/>
<path d="M76.8885 78.8973H86.1132V81.8866H76.8885V78.8973ZM79.8966 72.5202H83.1052V97.2315H79.8966V72.5202ZM87.7269 88.0644C87.7269 86.2044 88.1413 84.557 88.9703 83.1222C89.8258 81.6873 90.9756 80.5581 92.4195 79.7343C93.8629 78.9106 95.4813 78.4987 97.2721 78.4987C99.0909 78.4987 100.708 78.9106 102.125 79.7343C103.569 80.5581 104.706 81.6873 105.534 83.1222C106.39 84.557 106.818 86.2044 106.818 88.0644C106.818 89.8979 106.39 91.5449 105.534 93.0067C104.706 94.4416 103.569 95.5705 102.125 96.3946C100.708 97.2186 99.0909 97.6301 97.2721 97.6301C95.4813 97.6301 93.8629 97.2186 92.4195 96.3946C90.9756 95.5705 89.8258 94.4416 88.9703 93.0067C88.1413 91.5449 87.7269 89.8979 87.7269 88.0644ZM90.9756 88.0644C90.9756 89.3399 91.2429 90.4688 91.7778 91.4523C92.3393 92.4357 93.0879 93.2189 94.0234 93.8038C94.9859 94.3618 96.0688 94.6408 97.2721 94.6408C98.4753 94.6408 99.5451 94.3618 100.481 93.8038C101.443 93.2189 102.192 92.4357 102.727 91.4523C103.288 90.4688 103.569 89.3399 103.569 88.0644C103.569 86.789 103.288 85.6598 102.727 84.6766C102.192 83.6669 101.443 82.883 100.481 82.325C99.5451 81.767 98.4753 81.488 97.2721 81.488C96.0688 81.488 94.9859 81.767 94.0234 82.325C93.0879 82.883 92.3393 83.6669 91.7778 84.6766C91.2429 85.6598 90.9756 86.789 90.9756 88.0644ZM125.062 66.1431H128.271V97.2315H125.062V66.1431ZM109.621 88.0644C109.621 86.0716 110.036 84.371 110.864 82.9627C111.694 81.5279 112.804 80.4251 114.193 79.6546C115.584 78.8841 117.108 78.4987 118.766 78.4987C120.317 78.4987 121.667 78.8841 122.816 79.6546C123.966 80.4251 124.862 81.5279 125.504 82.9627C126.172 84.371 126.506 86.0716 126.506 88.0644C126.506 90.0304 126.172 91.7313 125.504 93.1661C124.862 94.601 123.966 95.704 122.816 96.4743C121.667 97.2445 120.317 97.6301 118.766 97.6301C117.108 97.6301 115.584 97.2445 114.193 96.4743C112.804 95.704 111.694 94.601 110.864 93.1661C110.036 91.7313 109.621 90.0304 109.621 88.0644ZM112.87 88.0644C112.87 89.4724 113.151 90.6681 113.712 91.6516C114.301 92.635 115.076 93.3784 116.038 93.8836C117.001 94.3887 118.044 94.6408 119.167 94.6408C120.103 94.6408 121.026 94.3887 121.934 93.8836C122.843 93.3784 123.592 92.635 124.18 91.6516C124.769 90.6681 125.062 89.4724 125.062 88.0644C125.062 86.6562 124.769 85.4605 124.18 84.4773C123.592 83.4941 122.843 82.7502 121.934 82.2453C121.026 81.7404 120.103 81.488 119.167 81.488C118.044 81.488 117.001 81.7404 116.038 82.2453C115.076 82.7502 114.301 83.4941 113.712 84.4773C113.151 85.4605 112.87 86.6562 112.87 88.0644ZM135.543 91.5718C135.543 92.2624 135.704 92.8602 136.025 93.3654C136.372 93.8706 136.84 94.2552 137.428 94.5213C138.043 94.7604 138.738 94.88 139.514 94.88C140.503 94.88 141.385 94.6807 142.161 94.2821C142.963 93.8836 143.591 93.3256 144.046 92.6081C144.527 91.8638 144.768 91.0139 144.768 90.0573L145.41 92.4487C145.41 93.6175 145.049 94.588 144.327 95.3583C143.631 96.1285 142.763 96.7005 141.72 97.0721C140.703 97.4438 139.688 97.6301 138.672 97.6301C137.549 97.6301 136.492 97.4039 135.503 96.9526C134.541 96.4743 133.765 95.7967 133.177 94.9198C132.589 94.043 132.295 92.9798 132.295 91.7313C132.295 89.9507 132.922 88.5295 134.18 87.4666C135.463 86.3772 137.241 85.8324 139.514 85.8324C140.851 85.8324 141.961 85.9919 142.843 86.3107C143.751 86.603 144.473 86.9484 145.009 87.347C145.543 87.719 145.904 88.0246 146.092 88.2637V90.137C145.155 89.4993 144.193 89.0476 143.204 88.7819C142.214 88.4896 141.158 88.3434 140.035 88.3434C138.993 88.3434 138.136 88.4763 137.469 88.742C136.827 89.0078 136.346 89.3797 136.025 89.858C135.704 90.3363 135.543 90.9072 135.543 91.5718ZM135.062 83.1222L133.498 80.7706C134.193 80.2657 135.142 79.7609 136.346 79.256C137.575 78.7511 139.046 78.4987 140.757 78.4987C142.201 78.4987 143.458 78.7246 144.527 79.1763C145.623 79.6015 146.466 80.2259 147.054 81.0496C147.669 81.8733 147.977 82.883 147.977 84.0787V97.2315H144.768V84.5172C144.768 83.8794 144.661 83.3613 144.447 82.9627C144.233 82.5376 143.926 82.2054 143.525 81.9663C143.15 81.7272 142.709 81.5545 142.201 81.4482C141.693 81.3418 141.158 81.2887 140.597 81.2887C139.688 81.2887 138.858 81.3951 138.11 81.6076C137.388 81.8201 136.773 82.0726 136.265 82.3649C135.757 82.6571 135.356 82.9096 135.062 83.1222ZM167.852 78.8973L155.82 106H152.21L157.264 94.6408L150.205 78.8973H154.015L159.871 93.2458L158.547 93.0864L164.242 78.8973H167.852Z" fill="#525C3A"/>
<mask id="mask0_51_132" style="mask-type:luminance" maskUnits="userSpaceOnUse" x="13" y="0" width="54" height="55">
<path d="M54.6146 54.7491C57.8423 51.9046 60.5057 48.4907 62.4523 44.7023C64.399 40.9139 65.5909 36.8252 65.96 32.6698C66.3291 28.5143 65.8683 24.3734 64.6037 20.4835C63.3391 16.5936 61.2956 13.0308 58.5899 9.99863C55.8841 6.96641 52.569 4.52419 48.8339 2.81144C45.0988 1.09869 41.017 0.148792 36.8212 0.0161232C32.6255 -0.116546 28.3983 0.570592 24.3807 2.03829C20.3631 3.50589 16.6338 5.72542 13.406 8.56997L24.0939 20.547C25.6474 19.178 27.4421 18.1098 29.3757 17.4035C31.3093 16.6971 33.3438 16.3664 35.3631 16.4302C37.3825 16.494 39.347 16.9512 41.1446 17.7755C42.9422 18.5999 44.5377 19.7752 45.8399 21.2346C47.1422 22.694 48.1256 24.4086 48.7343 26.2807C49.3429 28.1528 49.5647 30.1459 49.3871 32.1458C49.2094 34.1457 48.6357 36.1135 47.6988 37.9368C46.7619 39.76 45.4802 41.4031 43.9267 42.7722L54.6146 54.7491Z" fill="white"/>
</mask>
<g mask="url(#mask0_51_132)">
<path d="M54.6146 54.7491C57.8423 51.9046 60.5057 48.4907 62.4523 44.7023C64.399 40.9139 65.5909 36.8252 65.96 32.6698C66.3291 28.5143 65.8683 24.3734 64.6037 20.4835C63.3391 16.5936 61.2956 13.0308 58.5899 9.99863C55.8841 6.96641 52.569 4.52419 48.8339 2.81144C45.0988 1.09869 41.017 0.148792 36.8212 0.0161232C32.6255 -0.116546 28.3983 0.570592 24.3807 2.03829C20.3631 3.50589 16.6338 5.72542 13.406 8.56997L24.0939 20.547C25.6474 19.178 27.4421 18.1098 29.3757 17.4035C31.3093 16.6971 33.3438 16.3664 35.3632 16.4302C37.3825 16.494 39.347 16.9512 41.1446 17.7755C42.9422 18.5999 44.5377 19.7752 45.8399 21.2346C47.1422 22.694 48.1256 24.4086 48.7343 26.2807C49.3429 28.1528 49.5647 30.1459 49.3871 32.1458C49.2094 34.1457 48.6357 36.1135 47.6988 37.9368C46.7619 39.76 45.4802 41.4031 43.9267 42.7722L54.6146 54.7491Z" stroke="#525C3A" stroke-width="6"/>
</g>
<path d="M4.02822 27.1107L10.7988 11.7603L48.0611 53.3817C48.0611 53.3817 53.7982 59.7476 54.0772 66.5183C54.3267 72.5743 51.5705 77.9772 51.5705 77.9772L44.0504 93.9202L10.2029 53.3817C10.2029 53.3817 3.94309 46.8726 2.42343 40.7462C0.886416 34.5492 4.02822 27.1107 4.02822 27.1107Z" stroke="#525C3A" stroke-width="3"/>
</svg>
