<svg width="41" height="41" viewBox="0 0 41 41" fill="none" xmlns="http://www.w3.org/2000/svg">
<g clip-path="url(#clip0_111_203)">
<path d="M32.4583 1.7085H8.54167C6.27711 1.71121 4.10608 2.612 2.50479 4.21329C0.903507 5.81457 0.00271259 7.98561 0 10.2502L0 30.7502C0.00271259 33.0147 0.903507 35.1858 2.50479 36.787C4.10608 38.3883 6.27711 39.2891 8.54167 39.2918H32.4583C34.7229 39.2891 36.8939 38.3883 38.4952 36.787C40.0965 35.1858 40.9973 33.0147 41 30.7502V10.2502C40.9973 7.98561 40.0965 5.81457 38.4952 4.21329C36.8939 2.612 34.7229 1.71121 32.4583 1.7085ZM8.54167 5.12516H32.4583C33.4813 5.12718 34.4802 5.43525 35.3265 6.00974C36.1729 6.58424 36.828 7.39886 37.2075 8.34879L24.1251 21.4329C23.1623 22.3918 21.8588 22.9302 20.5 22.9302C19.1412 22.9302 17.8377 22.3918 16.8749 21.4329L3.7925 8.34879C4.172 7.39886 4.82709 6.58424 5.67346 6.00974C6.51982 5.43525 7.51874 5.12718 8.54167 5.12516ZM32.4583 35.8752H8.54167C7.18243 35.8752 5.87887 35.3352 4.91774 34.3741C3.95662 33.413 3.41667 32.1094 3.41667 30.7502V12.8127L14.4593 23.8485C16.0628 25.4479 18.2352 26.3461 20.5 26.3461C22.7648 26.3461 24.9372 25.4479 26.5407 23.8485L37.5833 12.8127V30.7502C37.5833 32.1094 37.0434 33.413 36.0823 34.3741C35.1211 35.3352 33.8176 35.8752 32.4583 35.8752Z" fill="#525C3A"/>
</g>
<defs>
<clipPath id="clip0_111_203">
<rect width="41" height="41" fill="white"/>
</clipPath>
</defs>
</svg>
