<svg width="32" height="32" viewBox="0 0 32 32" fill="none" xmlns="http://www.w3.org/2000/svg">
<g clip-path="url(#clip0_51_47)">
<path d="M15.944 32.0108L15.0146 31.2141C13.7332 30.1412 2.54531 20.4789 2.54531 13.4111C2.54531 6.01126 8.54412 0.0124512 15.944 0.0124512C23.3439 0.0124512 29.3427 6.01126 29.3427 13.4111C29.3427 20.479 18.1547 30.1413 16.8787 31.2194L15.944 32.0108ZM15.944 2.90964C10.1469 2.9162 5.44912 7.61401 5.44256 13.4111C5.44256 17.8512 12.3258 24.9442 15.944 28.1906C19.5622 24.9429 26.4454 17.8458 26.4454 13.4111C26.4389 7.61401 21.7411 2.91626 15.944 2.90964Z" fill="#525C3A"/>
<path d="M15.944 18.7223C13.0107 18.7223 10.6329 16.3445 10.6329 13.4112C10.6329 10.478 13.0107 8.1001 15.944 8.1001C18.8772 8.1001 21.2551 10.478 21.2551 13.4112C21.2551 16.3445 18.8773 18.7223 15.944 18.7223ZM15.944 10.7556C14.4774 10.7556 13.2884 11.9445 13.2884 13.4112C13.2884 14.8778 14.4774 16.0667 15.944 16.0667C17.4106 16.0667 18.5996 14.8778 18.5996 13.4112C18.5996 11.9445 17.4107 10.7556 15.944 10.7556Z" fill="#525C3A"/>
</g>
<defs>
<clipPath id="clip0_51_47">
<rect width="32" height="32" fill="white"/>
</clipPath>
</defs>
</svg>
