<svg width="41" height="41" viewBox="0 0 41 41" fill="none" xmlns="http://www.w3.org/2000/svg">
<g clip-path="url(#clip0_111_200)">
<path d="M22.2083 1.70813C22.2083 1.25505 22.3883 0.820532 22.7087 0.500158C23.0291 0.179783 23.4636 -0.000201534 23.9167 -0.000201534C28.4459 0.00477244 32.7883 1.80622 35.9909 5.00888C39.1936 8.21155 40.995 12.5539 41 17.0831C41 17.5362 40.82 17.9707 40.4997 18.2911C40.1793 18.6115 39.7448 18.7915 39.2917 18.7915C38.8386 18.7915 38.4041 18.6115 38.0837 18.2911C37.7633 17.9707 37.5833 17.5362 37.5833 17.0831C37.5793 13.4598 36.1381 9.98595 33.576 7.42383C31.0139 4.86172 27.5401 3.42053 23.9167 3.41647C23.4636 3.41647 23.0291 3.23648 22.7087 2.91611C22.3883 2.59573 22.2083 2.16121 22.2083 1.70813ZM23.9167 10.2498C25.729 10.2498 27.4671 10.9697 28.7486 12.2512C30.0301 13.5327 30.75 15.2708 30.75 17.0831C30.75 17.5362 30.93 17.9707 31.2504 18.2911C31.5707 18.6115 32.0053 18.7915 32.4583 18.7915C32.9114 18.7915 33.346 18.6115 33.6663 18.2911C33.9867 17.9707 34.1667 17.5362 34.1667 17.0831C34.164 14.3655 33.0832 11.7599 31.1615 9.83829C29.2399 7.91663 26.6343 6.83585 23.9167 6.83313C23.4636 6.83313 23.0291 7.01312 22.7087 7.33349C22.3883 7.65387 22.2083 8.08839 22.2083 8.54147C22.2083 8.99454 22.3883 9.42906 22.7087 9.74944C23.0291 10.0698 23.4636 10.2498 23.9167 10.2498ZM39.4506 28.5956C40.4406 29.5883 40.9965 30.9331 40.9965 32.3351C40.9965 33.7371 40.4406 35.0819 39.4506 36.0747L37.896 37.8667C23.9047 51.2618 -10.1424 17.2232 3.04597 3.18755L5.01056 1.47922C6.00441 0.516872 7.33719 -0.0154927 8.72055 -0.00270451C10.1039 0.0100837 11.4266 0.566997 12.4025 1.54755C12.4555 1.60051 15.621 5.71247 15.621 5.71247C16.5603 6.69925 17.0832 8.01005 17.081 9.3724C17.0787 10.7348 16.5516 12.0438 15.6091 13.0275L13.6308 15.5149C14.7256 18.1749 16.3352 20.5925 18.3672 22.6285C20.3991 24.6646 22.8134 26.2791 25.4713 27.3793L27.974 25.3891C28.9578 24.4473 30.2667 23.9207 31.6286 23.9188C32.9906 23.9169 34.3009 24.4398 35.2873 25.3788C35.2873 25.3788 39.3976 28.5426 39.4506 28.5956ZM37.0999 31.0795C37.0999 31.0795 33.0118 27.9345 32.9589 27.8815C32.6069 27.5325 32.1314 27.3368 31.6358 27.3368C31.1402 27.3368 30.6646 27.5325 30.3127 27.8815C30.2666 27.9293 26.8209 30.6746 26.8209 30.6746C26.5886 30.8595 26.3123 30.9806 26.019 31.0261C25.7258 31.0717 25.4257 31.04 25.1484 30.9343C21.7052 29.6523 18.5777 27.6453 15.9778 25.0492C13.3779 22.4531 11.3662 19.3286 10.0792 15.8873C9.96506 15.6062 9.92786 15.2998 9.97139 14.9995C10.0149 14.6993 10.1376 14.4161 10.3269 14.179C10.3269 14.179 13.0722 10.7315 13.1183 10.6871C13.4673 10.3352 13.6631 9.85964 13.6631 9.36403C13.6631 8.86841 13.4673 8.39287 13.1183 8.04092C13.0653 7.98967 9.92031 3.89822 9.92031 3.89822C9.5631 3.57792 9.0969 3.40638 8.61727 3.41877C8.13765 3.43115 7.68093 3.62653 7.34072 3.96484L5.37614 5.67317C-4.26228 17.2625 25.2423 45.1306 35.3984 35.5331L36.9547 33.7394C37.3194 33.4016 37.5384 32.9352 37.5655 32.4388C37.5926 31.9425 37.4256 31.455 37.0999 31.0795Z" fill="#525C3A"/>
</g>
<defs>
<clipPath id="clip0_111_200">
<rect width="41" height="41" fill="white"/>
</clipPath>
</defs>
</svg>
