<svg width="25" height="25" viewBox="0 0 25 25" fill="none" xmlns="http://www.w3.org/2000/svg">
<g clip-path="url(#clip0_43_29)">
<path d="M19.6052 13.4156L12.4396 20.5802V25H16.8583L24.024 17.8354C24.6135 17.2448 24.9396 16.4604 24.9396 15.625C24.9396 14.7896 24.6146 14.0052 24.024 13.4156C22.8052 12.1969 20.824 12.1969 19.6052 13.4156ZM22.551 16.3615L15.9958 22.9167H14.5229V21.4427L21.0781 14.8885C21.4854 14.4823 22.1437 14.4823 22.551 14.8885C22.7479 15.0844 22.8562 15.3458 22.8562 15.625C22.8562 15.9042 22.7479 16.1646 22.551 16.3615ZM21.875 2.08333H18.75V0H16.6667V2.08333H8.33333V0H6.25V2.08333H3.125C1.40208 2.08333 0 3.48542 0 5.20833V25H10.4167V22.9167H2.08333V10.4167H25V5.20833C25 3.48542 23.5979 2.08333 21.875 2.08333ZM22.9167 8.33333H2.08333V5.20833C2.08333 4.63437 2.55 4.16667 3.125 4.16667H21.875C22.45 4.16667 22.9167 4.63437 22.9167 5.20833V8.33333Z" fill="white"/>
</g>
<defs>
<clipPath id="clip0_43_29">
<rect width="25" height="25" fill="white"/>
</clipPath>
</defs>
</svg>
