<svg width="61" height="61" viewBox="0 0 61 61" fill="none" xmlns="http://www.w3.org/2000/svg">
<g clip-path="url(#clip0_43_37)">
<path d="M48.2917 7.62498H31.6997C31.3083 7.62498 30.9118 7.53348 30.5635 7.35811L22.542 3.34736C21.4873 2.82123 20.3105 2.54419 19.1337 2.54419H12.7083C5.70096 2.54165 0 8.24261 0 15.25V45.75C0 52.7574 5.70096 58.4583 12.7083 58.4583H15.25C16.653 58.4583 17.7917 57.3222 17.7917 55.9167C17.7917 54.5111 16.653 53.375 15.25 53.375H12.7083C8.50442 53.375 5.08333 49.9539 5.08333 45.75V22.875H55.9167V45.75C55.9167 49.9539 52.4956 53.375 48.2917 53.375H45.75C44.3445 53.375 43.2083 54.5111 43.2083 55.9167C43.2083 57.3222 44.3445 58.4583 45.75 58.4583H48.2917C55.299 58.4583 61 52.7574 61 45.75V20.3333C61 13.3259 55.299 7.62498 48.2917 7.62498ZM5.08333 15.25C5.08333 11.0461 8.50442 7.62498 12.7083 7.62498H19.1337C19.5251 7.62498 19.9216 7.71648 20.2698 7.89186L28.2913 11.9026C29.3461 12.4287 30.5229 12.7058 31.6997 12.7058H48.2917C51.6009 12.7058 54.3968 14.8382 55.449 17.7891H5.08333V15.25ZM39.922 48.5585C40.9158 49.5523 40.9158 51.1586 39.922 52.1524L35.8223 56.2522C34.3557 57.7187 32.4291 58.4507 30.5 58.4507C28.5709 58.4507 26.6468 57.7187 25.1803 56.2522L21.078 52.1524C20.0843 51.1586 20.0843 49.5523 21.078 48.5585C22.0718 47.5647 23.6782 47.5647 24.672 48.5585L27.9583 51.8449V33.0417C27.9583 31.6361 29.097 30.5 30.5 30.5C31.903 30.5 33.0417 31.6361 33.0417 33.0417V51.8449L36.328 48.5585C37.3218 47.5647 38.9282 47.5647 39.922 48.5585Z" fill="#525C3A"/>
</g>
<defs>
<clipPath id="clip0_43_37">
<rect width="61" height="61" fill="white"/>
</clipPath>
</defs>
</svg>
