<svg width="66" height="66" viewBox="0 0 66 66" fill="none" xmlns="http://www.w3.org/2000/svg">
<g clip-path="url(#clip0_41_12)">
<path d="M63.25 41.2499H61.4158C60.7283 41.2499 60.0462 41.3022 59.367 41.4067L39.9905 26.8757L44.6325 22.4317C45.7298 21.3812 45.7682 19.6377 44.7178 18.5432C43.6645 17.4459 41.921 17.4102 40.8293 18.4579L29.3535 29.4442C28.7815 30.0162 28.0033 30.3104 27.1865 30.2417C26.367 30.1757 25.6465 29.7604 25.1543 29.0729C24.4008 28.0279 24.6318 26.3917 25.6163 25.4044L38.5495 13.2247C40.9998 10.9229 44.8305 10.3592 47.828 11.8634L54.197 15.0479C56.0945 15.9967 58.223 16.4972 60.3433 16.4972H63.2473C64.768 16.4972 65.9973 15.2679 65.9973 13.7472C65.9973 12.2264 64.768 10.9972 63.2473 10.9972H60.3433C59.07 10.9972 57.7913 10.6974 56.6528 10.1282L50.2893 6.94369C45.2733 4.43294 38.8685 5.36519 34.7765 9.22069L33.077 10.8212L31.152 9.06669C28.6248 6.76494 25.3523 5.49719 21.8295 5.49719C19.7093 5.49719 17.5945 5.99769 15.7053 6.94094L9.34175 10.1254C8.2005 10.6947 6.92175 10.9944 5.6485 10.9944H2.75C1.22925 10.9944 3.41819e-06 12.2237 3.41819e-06 13.7444C3.41819e-06 15.2652 1.22925 16.4944 2.75 16.4944H5.654C7.77425 16.4944 9.90275 15.9912 11.803 15.0452L18.172 11.8607C20.9825 10.4472 24.9315 10.8294 27.4505 13.1312L29.0648 14.6024L21.7883 21.4554C18.8375 24.4034 18.3673 29.0647 20.6938 32.2849C22.1238 34.2732 24.9645 35.7472 27.4148 35.7472C29.5955 35.7472 31.6883 34.8892 33.2008 33.3739L35.9673 30.7257L53.4188 43.8129C53.3335 43.8734 36.3743 56.5894 36.3743 56.5894C34.386 58.1349 31.6113 58.1349 29.5818 56.5592L12.8315 43.9972C10.4693 42.2234 7.53775 41.2472 4.5815 41.2472H2.74725C1.2265 41.2472 -0.00274658 42.4764 -0.00274658 43.9972C-0.00274658 45.5179 1.2265 46.7472 2.74725 46.7472H4.5815C6.35525 46.7472 8.1125 47.3329 9.5315 48.3972L26.2433 60.9317C28.237 62.4827 30.6268 63.2582 33.011 63.2582C35.3815 63.2582 37.7493 62.4909 39.7128 60.9619L56.4685 48.3999C57.8848 47.3357 59.642 46.7499 61.4158 46.7499H63.25C64.7708 46.7499 66 45.5207 66 43.9999C66 42.4792 64.7708 41.2499 63.25 41.2499Z" fill="#525C3A"/>
</g>
<defs>
<clipPath id="clip0_41_12">
<rect width="66" height="66" fill="white"/>
</clipPath>
</defs>
</svg>
