<svg width="61" height="61" viewBox="0 0 61 61" fill="none" xmlns="http://www.w3.org/2000/svg">
<g clip-path="url(#clip0_43_35)">
<path d="M58.4583 38.125H56.763C56.1276 38.125 55.4973 38.1733 54.8695 38.2699L36.9609 24.8397L41.2512 20.7324C42.2654 19.7615 42.3009 18.1501 41.33 17.1385C40.3566 16.1244 38.7451 16.0913 37.7361 17.0597L27.1297 27.2136C26.6011 27.7423 25.8818 28.0143 25.1269 27.9507C24.3695 27.8897 23.7036 27.5059 23.2486 26.8705C22.5522 25.9047 22.7657 24.3924 23.6756 23.4799L35.6291 12.2229C37.8937 10.0955 41.4342 9.57448 44.2046 10.9648L50.0911 13.908C51.8449 14.7849 53.8121 15.2475 55.7718 15.2475H58.4558C59.8613 15.2475 60.9974 14.1114 60.9974 12.7058C60.9974 11.3003 59.8613 10.1641 58.4558 10.1641H55.7718C54.595 10.1641 53.4131 9.8871 52.3609 9.36098L46.4794 6.41773C41.8434 4.09719 35.9239 4.95881 32.1419 8.52223L30.5711 10.0015L28.792 8.37989C26.4562 6.25252 23.4316 5.08081 20.1757 5.08081C18.2161 5.08081 16.2616 5.54339 14.5154 6.41519L8.63402 9.35844C7.57923 9.88456 6.39735 10.1616 5.22056 10.1616H2.54165C1.1361 10.1616 -2.18097e-05 11.2977 -2.18097e-05 12.7033C-2.18097e-05 14.1088 1.1361 15.2449 2.54165 15.2449H5.22564C7.18527 15.2449 9.15252 14.7798 10.9088 13.9055L16.7953 10.9622C19.3929 9.65581 23.0427 10.0091 25.3709 12.1365L26.8629 13.4963L20.1376 19.8301C17.4104 22.5548 16.9758 26.8629 19.126 29.8392C20.4477 31.6768 23.0732 33.0391 25.3379 33.0391C27.3534 33.0391 29.2876 32.2461 30.6855 30.8457L33.2424 28.3981L49.3719 40.4939C49.2931 40.5498 33.6186 52.3024 33.6186 52.3024C31.781 53.7309 29.2164 53.7309 27.3407 52.2745L11.8594 40.6641C9.6761 39.0248 6.96669 38.1225 4.2344 38.1225H2.5391C1.13356 38.1225 -0.00256348 39.2586 -0.00256348 40.6641C-0.00256348 42.0697 1.13356 43.2058 2.5391 43.2058H4.2344C5.87377 43.2058 7.4979 43.7472 8.80939 44.7308L24.2551 56.3157C26.0978 57.7492 28.3065 58.466 30.5101 58.466C32.7011 58.466 34.8894 57.7569 36.7042 56.3437L52.1906 44.7334C53.4995 43.7497 55.1236 43.2084 56.763 43.2084H58.4583C59.8639 43.2084 61 42.0722 61 40.6667C61 39.2611 59.8639 38.125 58.4583 38.125Z" fill="white"/>
</g>
<defs>
<clipPath id="clip0_43_35">
<rect width="61" height="61" fill="white"/>
</clipPath>
</defs>
</svg>
