<svg width="27" height="27" viewBox="0 0 27 27" fill="none" xmlns="http://www.w3.org/2000/svg">
<path d="M20.2506 13.5C20.2506 14.121 19.7466 14.625 19.1257 14.625C18.5047 14.625 18.0007 14.121 18.0007 13.5C18.0007 12.879 18.5047 12.375 19.1257 12.375C19.7466 12.375 20.2506 12.879 20.2506 13.5ZM7.87659 5.625C8.49754 5.625 9.0015 5.12213 9.0015 4.5C9.0015 3.25912 10.0105 2.25 11.2513 2.25C12.4921 2.25 13.5011 3.25912 13.5011 4.5C13.5011 5.12213 14.0051 5.625 14.626 5.625C15.247 5.625 15.7509 5.12213 15.7509 4.5C15.7509 2.01825 13.7329 0 11.2513 0C8.76977 0 6.75169 2.01825 6.75169 4.5C6.75169 5.12213 7.25564 5.625 7.87659 5.625ZM27 14.625V16.875C27 18.1192 26.1586 18.8764 25.2361 19.0732C24.4926 20.934 23.1303 22.5056 21.3755 23.5215V23.625C21.3755 25.4858 19.8613 27 18.0007 27C16.5339 27 15.283 26.0595 14.8184 24.75H12.1827C11.7181 26.0595 10.4673 27 9.00037 27C7.13978 27 5.62566 25.4858 5.62566 23.625V23.5361C2.66153 21.8272 0.921298 18.612 1.14515 15.1538C1.21602 14.0535 1.49388 13.0084 1.93821 12.0532C0.794184 11.5121 0 10.3477 0 9C0 7.13925 1.51412 5.625 3.37472 5.625C3.99567 5.625 4.49962 6.12787 4.49962 6.75C4.49962 7.37213 3.99567 7.875 3.37472 7.875C2.75377 7.875 2.24981 8.379 2.24981 9C2.24981 9.55237 2.65028 10.0125 3.17561 10.107C4.88659 8.05613 7.50987 6.75 10.4234 6.75H16.4563C17.2808 5.08725 18.8208 3.924 20.8738 3.43575C21.5386 3.27937 22.227 3.43237 22.7647 3.8565C23.3103 4.2885 23.6242 4.93425 23.6242 5.6295V9.80888C24.3081 10.5863 24.8548 11.475 25.235 12.4267C26.1586 12.6236 27 13.3807 27 14.625ZM24.7502 14.625H24.4195C23.9223 14.625 23.4835 14.2976 23.3418 13.8206C23.0336 12.7856 22.4644 11.8226 21.6961 11.034C21.4902 10.8236 21.3755 10.5412 21.3755 10.2487V5.6295C20.2787 5.8905 18.8276 6.56325 18.2662 8.25638C18.1076 8.73225 17.6442 9.05962 17.1526 9.02588C17.0761 9.0225 10.4256 9.00113 10.4256 9.00113C6.71006 9.00113 3.61995 11.7675 3.39159 15.3C3.21161 18.0776 4.72011 20.646 7.2354 21.8419C7.62799 22.0286 7.87659 22.4246 7.87659 22.8577V23.6261C7.87659 24.2471 8.38168 24.7511 9.0015 24.7511C9.62132 24.7511 10.1264 24.2471 10.1264 23.6261C10.1264 23.0051 10.6304 22.5011 11.2513 22.5011H15.7509C16.3719 22.5011 16.8758 23.004 16.8758 23.6261C16.8758 24.2482 17.3809 24.7511 18.0007 24.7511C18.6206 24.7511 19.1257 24.2471 19.1257 23.6261V22.8454C19.1257 22.4122 19.3743 22.0174 19.7657 21.8306C21.5003 21.0026 22.803 19.4895 23.3418 17.6816C23.4835 17.2046 23.9223 16.8773 24.4195 16.8773H24.7502V14.6272V14.625Z" fill="white"/>
</svg>
