<svg width="58" height="58" viewBox="0 0 58 58" fill="none" xmlns="http://www.w3.org/2000/svg">
<g clip-path="url(#clip0_41_8)">
<path d="M57.2919 53.8747L42.8668 39.4496C46.7978 34.6419 48.7305 28.5072 48.2653 22.3144C47.8 16.1216 44.9722 10.3446 40.367 6.17822C35.7617 2.01186 29.7312 -0.225049 23.5229 -0.0698221C17.3146 0.0854047 11.4035 2.62089 7.01219 7.01219C2.62089 11.4035 0.0854047 17.3146 -0.0698221 23.5229C-0.225049 29.7312 2.01186 35.7617 6.17822 40.367C10.3446 44.9722 16.1216 47.8 22.3144 48.2653C28.5072 48.7305 34.6419 46.7978 39.4496 42.8668L53.8747 57.2919C54.3305 57.7321 54.941 57.9757 55.5746 57.9702C56.2082 57.9647 56.8144 57.7105 57.2624 57.2624C57.7105 56.8144 57.9647 56.2082 57.9702 55.5746C57.9757 54.941 57.7321 54.3305 57.2919 53.8747ZM24.1666 43.5C20.3429 43.5 16.605 42.3661 13.4256 40.2417C10.2463 38.1173 7.76825 35.0979 6.30496 31.5652C4.84166 28.0325 4.4588 24.1452 5.20478 20.3949C5.95076 16.6446 7.79208 13.1997 10.4959 10.4959C13.1997 7.79208 16.6446 5.95076 20.3949 5.20478C24.1452 4.4588 28.0325 4.84166 31.5652 6.30496C35.0979 7.76825 38.1173 10.2463 40.2417 13.4256C42.3661 16.605 43.5 20.3429 43.5 24.1666C43.4942 29.2924 41.4555 34.2065 37.831 37.831C34.2065 41.4555 29.2924 43.4942 24.1666 43.5Z" fill="#525C3A"/>
</g>
<defs>
<clipPath id="clip0_41_8">
<rect width="58" height="58" fill="white"/>
</clipPath>
</defs>
</svg>
