<svg width="68" height="66" viewBox="0 0 68 66" fill="none" xmlns="http://www.w3.org/2000/svg">
<g clip-path="url(#clip0_49_16)">
<path d="M67.1698 61.3057L50.2605 44.8938C54.2612 40.15 56.6667 34.0918 56.6667 27.5C56.6667 12.3365 43.9563 0 28.3333 0C12.7103 0 0 12.3365 0 27.5C0 42.6635 12.7103 55 28.3333 55C35.1277 55 41.3695 52.6652 46.2542 48.7822L63.1635 65.1943C63.716 65.7305 64.4413 66 65.1667 66C65.892 66 66.6173 65.7305 67.1698 65.1943C68.2777 64.119 68.2777 62.381 67.1698 61.3057ZM5.66667 27.5C5.66667 15.3698 15.8355 5.5 28.3333 5.5C40.8312 5.5 51 15.3698 51 27.5C51 39.6302 40.8312 49.5 28.3333 49.5C15.8355 49.5 5.66667 39.6302 5.66667 27.5ZM39.6667 33C39.6667 37.5485 35.853 41.25 31.1667 41.25V44C31.1667 45.5207 29.8973 46.75 28.3333 46.75C26.7693 46.75 25.5 45.5207 25.5 44V41.25H24.7407C21.7175 41.25 18.8955 39.6715 17.3797 37.1278C16.5977 35.8105 17.0595 34.1302 18.4138 33.3713C19.7653 32.6068 21.5022 33.0578 22.2842 34.3722C22.7913 35.2248 23.732 35.75 24.7407 35.75H31.1667C32.7278 35.75 34 34.518 34 33C34 31.9578 33.2322 31.0805 32.1753 30.9073L23.5592 29.5157C19.7568 28.8997 17 25.7372 17 22C17 17.4515 20.8137 13.75 25.5 13.75V11C25.5 9.47925 26.7693 8.25 28.3333 8.25C29.8973 8.25 31.1667 9.47925 31.1667 11V13.75H31.926C34.9492 13.75 37.7712 15.3285 39.287 17.8722C40.0718 19.1895 39.6072 20.8697 38.2557 21.6287C36.8957 22.396 35.1673 21.9422 34.3825 20.6278C33.8753 19.7752 32.9347 19.25 31.926 19.25H25.5C23.9388 19.25 22.6667 20.482 22.6667 22C22.6667 23.0422 23.4345 23.9195 24.4913 24.0927L33.1075 25.4843C36.9098 26.1003 39.6667 29.2628 39.6667 33Z" fill="#525C3A"/>
</g>
<defs>
<clipPath id="clip0_49_16">
<rect width="68" height="66" fill="white"/>
</clipPath>
</defs>
</svg>
