<svg width="66" height="66" viewBox="0 0 66 66" fill="none" xmlns="http://www.w3.org/2000/svg">
<g clip-path="url(#clip0_48_14)">
<path d="M33 0C14.8032 0 0 14.8032 0 33C0 51.1968 14.8032 66 33 66C51.1968 66 66 51.1968 66 33C66 14.8032 51.1968 0 33 0ZM33 60.5C17.8365 60.5 5.5 48.1635 5.5 33C5.5 17.8365 17.8365 5.5 33 5.5C48.1635 5.5 60.5 17.8365 60.5 33C60.5 48.1635 48.1635 60.5 33 60.5ZM44 38.5C44 43.0485 40.2985 46.75 35.75 46.75V49.5C35.75 51.0207 34.5207 52.25 33 52.25C31.4792 52.25 30.25 51.0207 30.25 49.5V46.75H29.513C26.5788 46.75 23.8398 45.1715 22.3685 42.6278C21.6067 41.3105 22.0578 39.6302 23.3695 38.8713C24.6868 38.104 26.3698 38.5605 27.126 39.8722C27.6183 40.7248 28.5312 41.25 29.5103 41.25H35.7472C37.2652 41.25 38.4972 40.018 38.4972 38.5C38.4972 37.4605 37.752 36.5805 36.7262 36.41L28.3635 35.0158C24.673 34.4025 21.9972 31.24 21.9972 27.5C21.9972 22.9515 25.6987 19.25 30.2472 19.25V16.5C30.2472 14.982 31.4765 13.75 32.9972 13.75C34.518 13.75 35.7472 14.982 35.7472 16.5V19.25H36.4842C39.4185 19.25 42.1575 20.8312 43.6287 23.375C44.3905 24.6895 43.9395 26.3698 42.6278 27.1315C41.3078 27.8933 39.6275 27.4423 38.8713 26.1278C38.379 25.278 37.466 24.7528 36.487 24.7528H30.25C28.732 24.7528 27.5 25.9875 27.5 27.5028C27.5 28.5423 28.2453 29.4222 29.271 29.5927L37.6338 30.987C41.3242 31.6002 44 34.7628 44 38.5028V38.5Z" fill="#525C3A"/>
</g>
<defs>
<clipPath id="clip0_48_14">
<rect width="66" height="66" fill="white"/>
</clipPath>
</defs>
</svg>
