<svg width="61" height="61" viewBox="0 0 61 61" fill="none" xmlns="http://www.w3.org/2000/svg">
<g clip-path="url(#clip0_41_10)">
<path d="M30.5 40.6667C28.4892 40.6667 26.5236 40.0704 24.8517 38.9533C23.1798 37.8361 21.8767 36.2483 21.1072 34.3906C20.3377 32.5329 20.1364 30.4887 20.5287 28.5166C20.921 26.5444 21.8892 24.7329 23.3111 23.3111C24.7329 21.8892 26.5444 20.921 28.5166 20.5287C30.4887 20.1364 32.5329 20.3377 34.3906 21.1072C36.2483 21.8767 37.8361 23.1798 38.9533 24.8517C40.0704 26.5236 40.6667 28.4892 40.6667 30.5C40.6667 33.1964 39.5955 35.7823 37.6889 37.6889C35.7823 39.5955 33.1964 40.6667 30.5 40.6667ZM30.5 25.4167C29.4946 25.4167 28.5118 25.7148 27.6759 26.2734C26.8399 26.8319 26.1884 27.6258 25.8036 28.5547C25.4189 29.4836 25.3182 30.5056 25.5143 31.4917C25.7105 32.4778 26.1946 33.3835 26.9055 34.0945C27.6165 34.8054 28.5222 35.2895 29.5083 35.4857C30.4944 35.6818 31.5164 35.5811 32.4453 35.1964C33.3742 34.8116 34.1681 34.1601 34.7266 33.3242C35.2852 32.4882 35.5833 31.5054 35.5833 30.5C35.5833 29.1518 35.0478 27.8589 34.0945 26.9055C33.1412 25.9522 31.8482 25.4167 30.5 25.4167ZM45.75 58.4583C45.75 54.4138 44.1433 50.5349 41.2834 47.675C38.4235 44.815 34.5446 43.2083 30.5 43.2083C26.4555 43.2083 22.5766 44.815 19.7166 47.675C16.8567 50.5349 15.25 54.4138 15.25 58.4583C15.25 59.1324 15.5178 59.7789 15.9944 60.2556C16.4711 60.7322 17.1176 61 17.7917 61C18.4658 61 19.1122 60.7322 19.5889 60.2556C20.0656 59.7789 20.3333 59.1324 20.3333 58.4583C20.3333 55.762 21.4045 53.176 23.3111 51.2694C25.2177 49.3628 27.8036 48.2917 30.5 48.2917C33.1964 48.2917 35.7823 49.3628 37.6889 51.2694C39.5955 53.176 40.6667 55.762 40.6667 58.4583C40.6667 59.1324 40.9344 59.7789 41.4111 60.2556C41.8878 60.7322 42.5342 61 43.2083 61C43.8824 61 44.5289 60.7322 45.0056 60.2556C45.4822 59.7789 45.75 59.1324 45.75 58.4583ZM45.75 20.3333C43.7392 20.3333 41.7736 19.7371 40.1017 18.6199C38.4298 17.5028 37.1267 15.915 36.3572 14.0573C35.5877 12.1996 35.3864 10.1554 35.7787 8.18325C36.171 6.21111 37.1392 4.39959 38.5611 2.97775C39.9829 1.55592 41.7944 0.587637 43.7666 0.195354C45.7387 -0.196929 47.7829 0.00440502 49.6406 0.773896C51.4983 1.54339 53.0861 2.84647 54.2033 4.51837C55.3204 6.19027 55.9167 8.15589 55.9167 10.1667C55.9167 12.863 54.8455 15.449 52.9389 17.3556C51.0323 19.2622 48.4464 20.3333 45.75 20.3333ZM45.75 5.08334C44.7446 5.08334 43.7618 5.38147 42.9258 5.94003C42.0899 6.4986 41.4384 7.29251 41.0536 8.22136C40.6689 9.15022 40.5682 10.1723 40.7643 11.1584C40.9605 12.1445 41.4446 13.0502 42.1555 13.7611C42.8665 14.472 43.7722 14.9562 44.7583 15.1523C45.7444 15.3485 46.7665 15.2478 47.6953 14.8631C48.6242 14.4783 49.4181 13.8268 49.9766 12.9908C50.5352 12.1549 50.8333 11.1721 50.8333 10.1667C50.8333 8.81849 50.2978 7.52552 49.3445 6.57221C48.3912 5.6189 47.0982 5.08334 45.75 5.08334ZM61 38.125C60.996 34.0817 59.388 30.2051 56.5289 27.3461C53.6699 24.487 49.7933 22.879 45.75 22.875C45.0759 22.875 44.4294 23.1428 43.9528 23.6194C43.4761 24.0961 43.2083 24.7426 43.2083 25.4167C43.2083 26.0908 43.4761 26.7372 43.9528 27.2139C44.4294 27.6906 45.0759 27.9583 45.75 27.9583C48.4464 27.9583 51.0323 29.0295 52.9389 30.9361C54.8455 32.8427 55.9167 35.4286 55.9167 38.125C55.9167 38.7991 56.1844 39.4456 56.6611 39.9222C57.1378 40.3989 57.7842 40.6667 58.4583 40.6667C59.1324 40.6667 59.7789 40.3989 60.2556 39.9222C60.7322 39.4456 61 38.7991 61 38.125ZM15.25 20.3333C13.2392 20.3333 11.2736 19.7371 9.6017 18.6199C7.9298 17.5028 6.62672 15.915 5.85723 14.0573C5.08773 12.1996 4.8864 10.1554 5.27868 8.18325C5.67097 6.21111 6.63925 4.39959 8.06108 2.97775C9.48291 1.55592 11.2944 0.587637 13.2666 0.195354C15.2387 -0.196929 17.2829 0.00440502 19.1406 0.773896C20.9983 1.54339 22.5861 2.84647 23.7033 4.51837C24.8204 6.19027 25.4167 8.15589 25.4167 10.1667C25.4167 12.863 24.3455 15.449 22.4389 17.3556C20.5323 19.2622 17.9464 20.3333 15.25 20.3333ZM15.25 5.08334C14.2446 5.08334 13.2618 5.38147 12.4259 5.94003C11.5899 6.4986 10.9384 7.29251 10.5536 8.22136C10.1689 9.15022 10.0682 10.1723 10.2643 11.1584C10.4605 12.1445 10.9446 13.0502 11.6555 13.7611C12.3665 14.472 13.2722 14.9562 14.2583 15.1523C15.2444 15.3485 16.2665 15.2478 17.1953 14.8631C18.1242 14.4783 18.9181 13.8268 19.4766 12.9908C20.0352 12.1549 20.3333 11.1721 20.3333 10.1667C20.3333 8.81849 19.7978 7.52552 18.8445 6.57221C17.8911 5.6189 16.5982 5.08334 15.25 5.08334ZM5.08333 38.125C5.08333 35.4286 6.15446 32.8427 8.06108 30.9361C9.9677 29.0295 12.5536 27.9583 15.25 27.9583C15.9241 27.9583 16.5706 27.6906 17.0472 27.2139C17.5239 26.7372 17.7917 26.0908 17.7917 25.4167C17.7917 24.7426 17.5239 24.0961 17.0472 23.6194C16.5706 23.1428 15.9241 22.875 15.25 22.875C11.2067 22.879 7.33014 24.487 4.47108 27.3461C1.61203 30.2051 0.00403726 34.0817 0 38.125C0 38.7991 0.267782 39.4456 0.744437 39.9222C1.22109 40.3989 1.86757 40.6667 2.54167 40.6667C3.21576 40.6667 3.86224 40.3989 4.3389 39.9222C4.81555 39.4456 5.08333 38.7991 5.08333 38.125Z" fill="#525C3A"/>
</g>
<defs>
<clipPath id="clip0_41_10">
<rect width="61" height="61" fill="white"/>
</clipPath>
</defs>
</svg>
