<svg width="25" height="25" viewBox="0 0 25 25" fill="none" xmlns="http://www.w3.org/2000/svg">
<g clip-path="url(#clip0_42_22)">
<path d="M12.5 16.6667C11.6759 16.6667 10.8703 16.4223 10.1851 15.9645C9.49992 15.5066 8.96587 14.8559 8.6505 14.0945C8.33514 13.3332 8.25262 12.4954 8.41339 11.6871C8.57417 10.8789 8.971 10.1364 9.55372 9.55372C10.1364 8.971 10.8789 8.57417 11.6871 8.4134C12.4954 8.25262 13.3332 8.33514 14.0945 8.6505C14.8559 8.96587 15.5066 9.49992 15.9645 10.1851C16.4223 10.8703 16.6667 11.6759 16.6667 12.5C16.6667 13.6051 16.2277 14.6649 15.4463 15.4463C14.6649 16.2277 13.6051 16.6667 12.5 16.6667ZM12.5 10.4167C12.088 10.4167 11.6852 10.5389 11.3426 10.7678C11 10.9967 10.7329 11.3221 10.5753 11.7027C10.4176 12.0834 10.3763 12.5023 10.4567 12.9064C10.5371 13.3106 10.7355 13.6818 11.0269 13.9731C11.3182 14.2645 11.6894 14.4629 12.0936 14.5433C12.4977 14.6237 12.9166 14.5824 13.2973 14.4248C13.6779 14.2671 14.0033 14 14.2322 13.6574C14.4611 13.3148 14.5833 12.912 14.5833 12.5C14.5833 11.9475 14.3638 11.4176 13.9731 11.0269C13.5824 10.6362 13.0525 10.4167 12.5 10.4167ZM18.75 23.9583C18.75 22.3007 18.0915 20.711 16.9194 19.5389C15.7473 18.3668 14.1576 17.7083 12.5 17.7083C10.8424 17.7083 9.25268 18.3668 8.08058 19.5389C6.90848 20.711 6.25 22.3007 6.25 23.9583C6.25 24.2346 6.35975 24.4996 6.5551 24.6949C6.75045 24.8903 7.0154 25 7.29167 25C7.56793 25 7.83289 24.8903 8.02824 24.6949C8.22359 24.4996 8.33333 24.2346 8.33333 23.9583C8.33333 22.8533 8.77232 21.7935 9.55372 21.0121C10.3351 20.2307 11.3949 19.7917 12.5 19.7917C13.6051 19.7917 14.6649 20.2307 15.4463 21.0121C16.2277 21.7935 16.6667 22.8533 16.6667 23.9583C16.6667 24.2346 16.7764 24.4996 16.9718 24.6949C17.1671 24.8903 17.4321 25 17.7083 25C17.9846 25 18.2496 24.8903 18.4449 24.6949C18.6403 24.4996 18.75 24.2346 18.75 23.9583ZM18.75 8.33333C17.9259 8.33333 17.1203 8.08896 16.4351 7.63113C15.7499 7.17329 15.2159 6.52254 14.9005 5.76118C14.5851 4.99982 14.5026 4.16205 14.6634 3.35379C14.8242 2.54554 15.221 1.80311 15.8037 1.22039C16.3864 0.637672 17.1289 0.240835 17.9371 0.0800632C18.7454 -0.0807085 19.5832 0.00180534 20.3445 0.31717C21.1059 0.632536 21.7566 1.16659 22.2145 1.85179C22.6723 2.537 22.9167 3.34258 22.9167 4.16667C22.9167 5.27174 22.4777 6.33155 21.6963 7.11295C20.9149 7.89435 19.8551 8.33333 18.75 8.33333ZM18.75 2.08334C18.338 2.08334 17.9352 2.20552 17.5926 2.43444C17.25 2.66336 16.9829 2.98873 16.8253 3.36941C16.6676 3.75009 16.6263 4.16898 16.7067 4.57311C16.7871 4.97723 16.9855 5.34845 17.2769 5.63981C17.5682 5.93117 17.9394 6.12959 18.3436 6.20997C18.7477 6.29036 19.1666 6.2491 19.5473 6.09142C19.9279 5.93373 20.2533 5.66671 20.4822 5.32411C20.7111 4.9815 20.8333 4.57871 20.8333 4.16667C20.8333 3.61413 20.6138 3.08423 20.2231 2.69353C19.8324 2.30283 19.3025 2.08334 18.75 2.08334ZM25 15.625C24.9983 13.9679 24.3393 12.3792 23.1676 11.2074C21.9958 10.0357 20.4071 9.37666 18.75 9.375C18.4737 9.375 18.2088 9.48475 18.0134 9.6801C17.8181 9.87545 17.7083 10.1404 17.7083 10.4167C17.7083 10.6929 17.8181 10.9579 18.0134 11.1532C18.2088 11.3486 18.4737 11.4583 18.75 11.4583C19.8551 11.4583 20.9149 11.8973 21.6963 12.6787C22.4777 13.4601 22.9167 14.5199 22.9167 15.625C22.9167 15.9013 23.0264 16.1662 23.2218 16.3616C23.4171 16.5569 23.6821 16.6667 23.9583 16.6667C24.2346 16.6667 24.4996 16.5569 24.6949 16.3616C24.8903 16.1662 25 15.9013 25 15.625ZM6.25 8.33333C5.42591 8.33333 4.62033 8.08896 3.93512 7.63113C3.24992 7.17329 2.71587 6.52254 2.4005 5.76118C2.08514 4.99982 2.00262 4.16205 2.16339 3.35379C2.32417 2.54554 2.721 1.80311 3.30372 1.22039C3.88644 0.637672 4.62887 0.240835 5.43712 0.0800632C6.24538 -0.0807085 7.08316 0.00180534 7.84451 0.31717C8.60587 0.632536 9.25662 1.16659 9.71446 1.85179C10.1723 2.537 10.4167 3.34258 10.4167 4.16667C10.4167 5.27174 9.97768 6.33155 9.19628 7.11295C8.41488 7.89435 7.35507 8.33333 6.25 8.33333ZM6.25 2.08334C5.83796 2.08334 5.43516 2.20552 5.09256 2.43444C4.74996 2.66336 4.48293 2.98873 4.32525 3.36941C4.16757 3.75009 4.12631 4.16898 4.2067 4.57311C4.28708 4.97723 4.4855 5.34845 4.77686 5.63981C5.06822 5.93117 5.43943 6.12959 5.84356 6.20997C6.24769 6.29036 6.66658 6.2491 7.04726 6.09142C7.42794 5.93373 7.75331 5.66671 7.98223 5.32411C8.21115 4.9815 8.33333 4.57871 8.33333 4.16667C8.33333 3.61413 8.11384 3.08423 7.72314 2.69353C7.33244 2.30283 6.80253 2.08334 6.25 2.08334ZM2.08333 15.625C2.08333 14.5199 2.52232 13.4601 3.30372 12.6787C4.08512 11.8973 5.14493 11.4583 6.25 11.4583C6.52627 11.4583 6.79122 11.3486 6.98657 11.1532C7.18192 10.9579 7.29167 10.6929 7.29167 10.4167C7.29167 10.1404 7.18192 9.87545 6.98657 9.6801C6.79122 9.48475 6.52627 9.375 6.25 9.375C4.5929 9.37666 3.00415 10.0357 1.83241 11.2074C0.660666 12.3792 0.00165461 13.9679 0 15.625C0 15.9013 0.109747 16.1662 0.305097 16.3616C0.500448 16.5569 0.765399 16.6667 1.04167 16.6667C1.31793 16.6667 1.58289 16.5569 1.77824 16.3616C1.97359 16.1662 2.08333 15.9013 2.08333 15.625Z" fill="white"/>
</g>
<defs>
<clipPath id="clip0_42_22">
<rect width="25" height="25" fill="white"/>
</clipPath>
</defs>
</svg>
