<svg width="66" height="66" viewBox="0 0 66 66" fill="none" xmlns="http://www.w3.org/2000/svg">
<g clip-path="url(#clip0_49_22)">
<path d="M24.75 33C28.0134 33 31.2035 32.0323 33.9169 30.2193C36.6303 28.4062 38.7452 25.8293 39.994 22.8143C41.2429 19.7993 41.5696 16.4817 40.933 13.281C40.2963 10.0803 38.7248 7.14031 36.4173 4.83275C34.1097 2.52518 31.1697 0.953706 27.969 0.31705C24.7683 -0.319606 21.4507 0.00714922 18.4357 1.256C15.4207 2.50484 12.8438 4.61969 11.0308 7.3331C9.21771 10.0465 8.25 13.2366 8.25 16.5C8.25437 20.8747 9.99416 25.069 13.0876 28.1624C16.181 31.2558 20.3753 32.9956 24.75 33ZM24.75 5.50001C26.9256 5.50001 29.0523 6.14515 30.8613 7.35384C32.6702 8.56254 34.0801 10.2805 34.9127 12.2905C35.7452 14.3005 35.9631 16.5122 35.5386 18.646C35.1142 20.7798 34.0666 22.7398 32.5282 24.2782C30.9898 25.8166 29.0298 26.8642 26.896 27.2886C24.7622 27.7131 22.5505 27.4952 20.5405 26.6627C18.5305 25.8301 16.8125 24.4202 15.6038 22.6113C14.3951 20.8023 13.75 18.6756 13.75 16.5C13.75 13.5826 14.9089 10.7847 16.9718 8.72183C19.0347 6.65893 21.8326 5.50001 24.75 5.50001Z" fill="#525C3A"/>
<path d="M57.75 27.5V19.25H52.25V27.5H44V33H52.25V41.25H57.75V33H66V27.5H57.75Z" fill="#525C3A"/>
<path d="M35.8683 38.5H13.6317C10.0177 38.5044 6.55297 39.942 3.99747 42.4975C1.44197 45.053 0.00436653 48.5177 0 52.1318L0 66H5.5V52.1318C5.50218 49.9757 6.35962 47.9087 7.88415 46.3841C9.40867 44.8596 11.4757 44.0022 13.6317 44H35.8683C38.0243 44.0022 40.0913 44.8596 41.6159 46.3841C43.1404 47.9087 43.9978 49.9757 44 52.1318V66H49.5V52.1318C49.4956 48.5177 48.058 45.053 45.5025 42.4975C42.947 39.942 39.4823 38.5044 35.8683 38.5Z" fill="#525C3A"/>
</g>
<defs>
<clipPath id="clip0_49_22">
<rect width="66" height="66" fill="white"/>
</clipPath>
</defs>
</svg>
