<svg width="66" height="66" viewBox="0 0 66 66" fill="none" xmlns="http://www.w3.org/2000/svg">
<g clip-path="url(#clip0_49_20)">
<path d="M60.83 28.886C58.872 26.0507 57.75 23.5427 57.75 22V13.9288C57.75 6.8805 52.4975 1.0065 45.5317 0.264C45.3778 0.2475 43.3675 0 41.25 0H24.75C22.847 0 20.625 0.2475 20.4683 0.264C13.5025 1.0065 8.25 6.8805 8.25 13.9288V22C8.25 23.5427 7.128 26.0507 5.17 28.886C3.586 31.1767 2.75 33.8662 2.75 36.6685V52.25C2.75 59.8317 8.91825 66 16.5 66H49.5C57.0818 66 63.25 59.8317 63.25 52.25V36.6685C63.25 33.8662 62.414 31.174 60.83 28.886ZM33 24.9535L25.9243 5.5H40.073L32.9973 24.9535H33ZM8.25 52.25V46.75H19.25C20.7708 46.75 22 45.518 22 44C22 42.482 20.7708 41.25 19.25 41.25H8.25V36.6685C8.25 34.9883 8.7505 33.3795 9.691 32.0127C12.3833 28.116 13.75 24.7472 13.75 22V13.9288C13.75 9.99075 16.4725 6.666 20.2098 5.8685L30.25 33.4813V60.5H16.5C11.9515 60.5 8.25 56.7985 8.25 52.25ZM49.5 60.5H35.75V33.4813L45.7903 5.8685C49.5275 6.666 52.25 9.9935 52.25 13.9288V22C52.25 24.7472 53.614 28.116 56.309 32.0127C57.2523 33.3795 57.75 34.991 57.75 36.6685V41.25H46.75C45.2293 41.25 44 42.482 44 44C44 45.518 45.2293 46.75 46.75 46.75H57.75V52.25C57.75 56.7985 54.0485 60.5 49.5 60.5Z" fill="#525C3A"/>
</g>
<defs>
<clipPath id="clip0_49_20">
<rect width="66" height="66" fill="white"/>
</clipPath>
</defs>
</svg>
